<?xml version="1.0" encoding="UTF-8"?>
<!DOCTYPE svg PUBLIC "-//W3C//DTD SVG 1.1//EN" "http://www.w3.org/Graphics/SVG/1.1/DTD/svg11.dtd">
<!-- Creator: CorelDRAW 2018 (64 Bit) -->
<svg xmlns="http://www.w3.org/2000/svg" xml:space="preserve" width="0.659063in" height="0.590551in" version="1.1" style="shape-rendering:geometricPrecision; text-rendering:geometricPrecision; image-rendering:optimizeQuality; fill-rule:evenodd; clip-rule:evenodd"
viewBox="0 0 196.7 176.25"
 xmlns:xlink="http://www.w3.org/1999/xlink">
 <defs>
  <style type="text/css">
   <![CDATA[
    .fil0 {fill:none}
    .fil4 {fill:#FEFEFE}
    .fil3 {fill:#FEFEFE}
    .fil1 {fill:#FFB506}
    .fil2 {fill:#E60D2E}
   ]]>
  </style>
 </defs>
 <g id="Capa_x0020_1">
  <metadata id="CorelCorpID_0Corel-Layer"/>
  <rect class="fil0" width="196.7" height="176.25"/>
  <path class="fil1" d="M88.64 148.92c-16.32,0.13 -32.61,0.17 -48.78,-0.03 -11.83,-0.15 -22.11,-0.74 -26.19,-2.29 -3.9,-1.48 -8.09,-4.2 -8.8,-9.15 -0.72,-5 -1.3,-10.1 -1.12,-15.36 1.31,-38.57 32.82,-70.6 73.02,-76.92l0 -3.1c-7.15,-1.37 -11.97,-3.95 -11.97,-6.9 0,-4.39 10.67,-7.95 23.84,-7.95 13.16,0 23.84,3.56 23.84,7.95 0,2.83 -4.44,5.32 -11.12,6.73 -2.27,0.3 -4.86,1.01 -5.24,1.13 -5.09,1.62 -11.39,5.79 -14.57,8.6 -0.25,1.22 12.3,-8.51 27.07,-4.81 36.25,9.08 63.69,39.33 64.92,75.27 0.18,5.26 -0.41,10.36 -1.12,15.36 -0.71,4.95 -4.9,7.68 -8.79,9.15 -4.08,1.54 -14.36,2.14 -26.19,2.29 -16.17,0.2 -32.45,0.16 -48.77,0.03z"/>
  <path class="fil2" d="M5.53 64.23l144.22 57.18 -4.04 10.19c-22.38,-7.57 -149.74,-43.27 -140.18,-67.37z"/>
  <rect class="fil2" transform="matrix(0.0473784 0.0187853 -0.12498 0.315212 160.49 125.67)" width="634.31" height="32.33"/>
  <path class="fil3" d="M163.03 99.27c-2.01,-4.75 -4.38,-10.23 -7.65,-15.29 -5.38,-8.32 -12.52,-15.85 -19.79,-19.39 -4.09,-1.99 -7.69,2.19 -4.61,4.77 5.7,4.77 9.53,8.09 12.83,11.36 4.7,4.66 8.42,9.05 14.83,17.47 3.24,4.25 5.96,8.08 6.88,9.11 0.46,0.51 -1.13,-4.8 -2.5,-8.03z"/>
  <path class="fil3" d="M121.94 60.06c-1.77,-1.82 -5.32,-4.6 -8.27,-5.81 -0.32,-0.13 -3.36,-1.23 -4.62,-1.08 -0.45,0.05 -0.65,0.53 -0.45,0.89 0.09,0.17 0.45,0.47 0.95,0.8 0.66,0.45 2.59,1.06 5.18,1.76 3.05,0.82 6.5,3.27 7.22,3.44z"/>
  <ellipse class="fil4" cx="89.17" cy="34.89" rx="8.96" ry="2.54"/>
 </g>
</svg>
